<svg width="106" height="60" fill="none" xmlns="http://www.w3.org/2000/svg"><path fill-rule="evenodd" clip-rule="evenodd" d="m38 7 7 6.6H32v32.2h34V33.5l7 6.6V7H38Zm27.7 25.7L45.8 14h19.9v18.8Zm-6.2 8.4H37.4V19.5h1.5v20.1h20.6v1.5ZM41.8 51.8l-.8-1.7h-.7l1.2 2.2v1.4h.6v-1.4l1.2-2.2h-.7l-.8 1.7Zm3-1.7h.2l1.3 3.6h-.6l-.3-.9H44l-.3.9h-.6l1.3-3.6h.4Zm-.6 2.2h1l-.5-1.5-.5 1.5Zm4.3-.6a10.7 10.7 0 0 1-.3-.4v-.8c.1-.2.2-.3.4-.3l.4-.1h.5a.8.8 0 0 1 .4 1l-.2.3-.3.2-.2.2.7.8a1.4 1.4 0 0 0 .2-.6h.5v.5a1.5 1.5 0 0 1-.3.5l.5.7H50l-.2-.3-.4.2a1.6 1.6 0 0 1-1.1 0 1 1 0 0 1-.4-.4 1 1 0 0 1 0-.9s0-.2.2-.3l.3-.3Zm.3.4h-.1l-.2.3a.6.6 0 0 0 0 .6l.2.2h.3a1 1 0 0 0 .6-.2l-.8-.9Zm.1-.6.2-.2.3-.2v-.5H49a.4.4 0 0 0-.3.1.5.5 0 0 0 0 .5 1.4 1.4 0 0 0 .2.3Zm6.2 1h-.6v.4l-.3.2a1 1 0 0 1-.5.1h-.3a.7.7 0 0 1-.3-.3l-.1-.4v-1.3l.1-.4.3-.2h.8l.2.3.1.4h.6c0-.3 0-.5-.2-.7l-.4-.4-.7-.1h-.6l-.5.4-.3.5v1.7c0 .2.2.4.3.5a1.3 1.3 0 0 0 1 .5c.3 0 .6 0 .8-.2.2 0 .3-.2.4-.4l.2-.6Zm3.4-.5V51l-.4-.6-.4-.3-.7-.1h-.5l-.5.4-.3.6-.1.7V52.7l.4.5a1.3 1.3 0 0 0 1 .5l.7-.1.4-.4.3-.5.1-.7Zm-.6-.2v.7l-.2.4-.3.2-.3.1h-.4a.8.8 0 0 1-.3-.3l-.2-.4V51.2l.2-.3.3-.3h.7l.3.3.2.3v.6Z" fill="#AFB1B8"/></svg>