<svg aria-hidden="true" style="position:absolute;width:0;height:0;overflow:hidden" xmlns="http://www.w3.org/2000/svg"><defs><symbol id="icon-footer-instagram" viewBox="0 0 32 32"><path fill="#fff" style="fill:var(--color1, #fff)" d="M31.968 9.408c-.024-1.403-.292-2.735-.763-3.968l.027.08c-.427-1.109-1.058-2.054-1.854-2.83l-.002-.002c-.8-.8-1.76-1.44-2.832-1.84C25.393.4 24.061.127 22.669.096h-.013c-1.458-.07-3.167-.109-4.885-.109-.6 0-1.199.005-1.797.014l.09-.001c-4.352 0-4.896.016-6.592.096C7.76.16 6.592.448 5.584.832c-1.072.416-2.032 1.04-2.832 1.856-.816.8-1.44 1.76-1.856 2.832C.453 6.672.185 8.005.16 9.397v.011c-.07 1.458-.109 3.167-.109 4.885 0 .6.005 1.199.014 1.797L.064 16c0 4.352 0 4.896.08 6.592.03 1.405.303 2.737.779 3.968l-.027-.08c.4 1.072 1.04 2.032 1.856 2.832.8.816 1.76 1.44 2.832 1.856 1.008.384 2.176.656 3.872.736 1.712.08 2.24.096 6.592.096s4.896-.016 6.608-.096c1.397-.026 2.724-.294 3.952-.763l-.08.027c2.16-.851 3.837-2.528 4.669-4.633l.019-.055c.384-1.024.672-2.176.736-3.888.08-1.696.096-2.24.096-6.592 0-4.336 0-4.88-.08-6.592zm-2.88 13.072c-.064 1.552-.32 2.4-.544 2.96-.552 1.401-1.639 2.488-3.004 3.027l-.036.013c-.56.224-1.424.48-2.976.544-1.68.08-2.192.096-6.464.096-.465.007-1.013.011-1.562.011-1.724 0-3.439-.039-5.144-.116l.242.009c-1.568-.064-2.4-.32-2.96-.544-.722-.271-1.337-.68-1.839-1.199L4.8 27.28c-.518-.5-.926-1.108-1.189-1.79l-.011-.034c-.336-.884-.535-1.905-.544-2.972v-.004c-.068-1.463-.107-3.179-.107-4.903 0-.549.004-1.097.012-1.643l-.001.083c0-4.272.016-4.784.096-6.464.064-1.568.32-2.4.544-2.976.256-.688.656-1.312 1.2-1.824.504-.519 1.118-.928 1.806-1.189l.034-.011c.56-.224 1.408-.48 2.976-.544 1.68-.08 2.192-.096 6.448-.096 4.288 0 4.8 0 6.464.096 1.568.064 2.4.32 2.976.544.688.256 1.328.656 1.84 1.2.528.512.944 1.136 1.2 1.824.208.576.48 1.424.544 2.976.08 1.68.096 2.192.096 6.464s-.016 4.768-.096 6.464z"/><path fill="#fff" style="fill:var(--color1, #fff)" d="M16.064 7.776c-4.542 0-8.224 3.682-8.224 8.224s3.682 8.224 8.224 8.224 8.224-3.682 8.224-8.224-3.682-8.224-8.224-8.224zm0 13.552c-2.943 0-5.328-2.385-5.328-5.328s2.385-5.328 5.328-5.328c2.943 0 5.328 2.385 5.328 5.328s-2.385 5.328-5.328 5.328zM26.528 7.456c0 1.06-.86 1.92-1.92 1.92s-1.92-.86-1.92-1.92.86-1.92 1.92-1.92 1.92.86 1.92 1.92z"/></symbol><symbol id="icon-footer-linkedin" viewBox="0 0 32 32"><path fill="#fff" style="fill:var(--color1, #fff)" d="M32 32V20.256c0-5.728-1.232-10.16-7.952-10.16-.076-.003-.166-.005-.256-.005-2.555 0-4.788 1.376-5.999 3.428l-.018.032h-.096v-2.912h-6.368v21.36h6.64V21.423c0-2.784.528-5.488 3.968-5.488 3.408 0 3.456 3.184 3.456 5.664v10.4h6.624zM.528 10.64h6.64V32H.528V10.64zM3.84 0C1.719 0 0 1.719 0 3.84v.016C0 5.983 1.715 7.71 3.838 7.728h.002c2.128 0 3.84-1.76 3.84-3.888C7.68 1.719 5.961 0 3.84 0z"/></symbol><symbol id="icon-footer-twitter" viewBox="0 0 32 32"><path fill="#fff" style="fill:var(--color1, #fff)" d="M32 6.08c-1.184.528-2.464.864-3.776 1.04 1.36-.816 2.4-2.08 2.88-3.632-1.28.752-2.672 1.28-4.16 1.6-1.202-1.298-2.915-2.107-4.817-2.107-3.623 0-6.56 2.937-6.56 6.56 0 .538.065 1.06.187 1.56l-.009-.045c-5.462-.281-10.265-2.883-13.477-6.83l-.027-.034c-.558.949-.887 2.089-.887 3.307 0 2.26 1.134 4.255 2.865 5.446l.022.014c-1.04 0-2.08-.32-2.96-.8v.064c0 3.2 2.272 5.84 5.264 6.448-.518.147-1.113.232-1.728.232-.442 0-.873-.044-1.29-.127l.042.007c.878 2.623 3.284 4.493 6.136 4.56h.008c-2.221 1.763-5.066 2.828-8.159 2.828-.547 0-1.087-.033-1.617-.098l.064.006c2.826 1.846 6.286 2.944 10.003 2.944h.065-.003c12.08 0 18.672-10 18.672-18.672 0-.288 0-.576-.032-.848 1.312-.928 2.4-2.08 3.296-3.408z"/></symbol><symbol id="icon-instagram" viewBox="0 0 32 32"><path d="M31.968 9.408c-.024-1.403-.292-2.735-.763-3.968l.027.08c-.427-1.109-1.058-2.054-1.854-2.83l-.002-.002c-.8-.8-1.76-1.44-2.832-1.84C25.393.4 24.061.127 22.669.096h-.013c-1.458-.07-3.167-.109-4.885-.109-.6 0-1.199.005-1.797.014l.09-.001c-4.352 0-4.896.016-6.592.096C7.76.16 6.592.448 5.584.832c-1.072.416-2.032 1.04-2.832 1.856-.816.8-1.44 1.76-1.856 2.832C.453 6.672.185 8.005.16 9.397v.011c-.07 1.458-.109 3.167-.109 4.885 0 .6.005 1.199.014 1.797L.064 16c0 4.352 0 4.896.08 6.592.03 1.405.303 2.737.779 3.968l-.027-.08c.4 1.072 1.04 2.032 1.856 2.832.8.816 1.76 1.44 2.832 1.856 1.008.384 2.176.656 3.872.736 1.712.08 2.24.096 6.592.096s4.896-.016 6.608-.096c1.397-.026 2.724-.294 3.952-.763l-.08.027c2.16-.851 3.837-2.528 4.669-4.633l.019-.055c.384-1.024.672-2.176.736-3.888.08-1.696.096-2.24.096-6.592 0-4.336 0-4.88-.08-6.592zm-2.88 13.072c-.064 1.552-.32 2.4-.544 2.96-.552 1.401-1.639 2.488-3.004 3.027l-.036.013c-.56.224-1.424.48-2.976.544-1.68.08-2.192.096-6.464.096-.465.007-1.013.011-1.562.011-1.724 0-3.439-.039-5.144-.116l.242.009c-1.568-.064-2.4-.32-2.96-.544-.722-.271-1.337-.68-1.839-1.199L4.8 27.28c-.518-.5-.926-1.108-1.189-1.79l-.011-.034c-.336-.884-.535-1.905-.544-2.972v-.004c-.068-1.463-.107-3.179-.107-4.903 0-.549.004-1.097.012-1.643l-.001.083c0-4.272.016-4.784.096-6.464.064-1.568.32-2.4.544-2.976.256-.688.656-1.312 1.2-1.824.504-.519 1.118-.928 1.806-1.189l.034-.011c.56-.224 1.408-.48 2.976-.544 1.68-.08 2.192-.096 6.448-.096 4.288 0 4.8 0 6.464.096 1.568.064 2.4.32 2.976.544.688.256 1.328.656 1.84 1.2.528.512.944 1.136 1.2 1.824.208.576.48 1.424.544 2.976.08 1.68.096 2.192.096 6.464s-.016 4.768-.096 6.464z"/><path d="M16.064 7.776c-4.542 0-8.224 3.682-8.224 8.224s3.682 8.224 8.224 8.224 8.224-3.682 8.224-8.224-3.682-8.224-8.224-8.224zm0 13.552c-2.943 0-5.328-2.385-5.328-5.328s2.385-5.328 5.328-5.328c2.943 0 5.328 2.385 5.328 5.328s-2.385 5.328-5.328 5.328zM26.528 7.456c0 1.06-.86 1.92-1.92 1.92s-1.92-.86-1.92-1.92.86-1.92 1.92-1.92 1.92.86 1.92 1.92z"/></symbol><symbol id="icon-linkedin" viewBox="0 0 32 32"><path d="M32 32V20.256c0-5.728-1.232-10.16-7.952-10.16-.076-.003-.166-.005-.256-.005-2.555 0-4.788 1.376-5.999 3.428l-.018.032h-.096v-2.912h-6.368v21.36h6.64V21.423c0-2.784.528-5.488 3.968-5.488 3.408 0 3.456 3.184 3.456 5.664v10.4h6.624zM.528 10.64h6.64V32H.528V10.64zM3.84 0C1.719 0 0 1.719 0 3.84v.016C0 5.983 1.715 7.71 3.838 7.728h.002c2.128 0 3.84-1.76 3.84-3.888C7.68 1.719 5.961 0 3.84 0z"/></symbol><symbol id="icon-Logo-1" viewBox="0 0 57 32"><path d="M20.267 3.733 24 7.253h-6.933v17.173H35.2v-6.56l3.733 3.52V3.733H20.266zM35.04 17.44 24.427 7.467H35.04v10.027zm-3.307 4.48H19.946V10.4h.8v10.72h10.987v.8zm-9.44 5.707-.427-.907h-.373l.64 1.173v.747h.32v-.747l.64-1.173h-.373l-.427.907zm1.6-.907H24l.693 1.92h-.32l-.16-.48h-.747l-.16.48h-.32l.693-1.92h.213zm-.32 1.173h.533l-.267-.8-.267.8zm2.294-.32c-.045-.056-.098-.126-.148-.196l-.012-.017v-.427c.053-.107.107-.16.213-.16l.213-.053h.267c.143.071.24.216.24.384 0 .054-.01.105-.028.152l.001-.003-.107.16-.16.107-.107.107.373.427c.057-.091.095-.2.106-.317v-.003h.267v.267c-.038.103-.092.192-.161.267l.001-.001.267.373h-.427l-.107-.16-.213.107c-.087.033-.188.052-.293.052s-.206-.019-.299-.054l.006.002c-.091-.05-.163-.123-.212-.211l-.001-.003c-.036-.07-.057-.152-.057-.24s.021-.17.058-.243l-.001.003s0-.107.107-.16l.16-.16zm.16.214h-.053l-.107.16c-.027.046-.043.101-.043.16s.016.114.044.162l-.001-.002.107.107h.16c.121 0 .232-.04.321-.108l-.001.001-.427-.48zm.053-.32.107-.107.16-.107v-.267h-.213c-.005 0-.012-.001-.018-.001-.055 0-.104.021-.142.054-.022.038-.036.084-.036.133s.013.095.036.135l-.001-.001c.03.061.066.114.107.161l-.001-.001zm3.307.533h-.32v.213l-.16.107c-.068.034-.149.054-.234.054-.011 0-.023 0-.034-.001h.002-.16c-.069-.036-.124-.091-.159-.158l-.001-.002-.053-.213v-.693l.053-.213.16-.107h.427l.107.16.053.213h.32c0-.16 0-.267-.107-.373l-.213-.213-.373-.053h-.32l-.267.213-.16.267v.907c0 .107.107.213.16.267.125.16.317.262.533.267h.001c.16 0 .32 0 .427-.107.107 0 .16-.107.213-.213l.107-.32zm1.813-.267V27.2l-.213-.32-.213-.16-.373-.053h-.267l-.267.213-.16.32-.053.373v.533l.213.267c.125.16.317.262.533.267h.001l.373-.053.213-.213.16-.267.053-.373zm-.32-.106V28l-.107.213-.16.107-.16.053h-.213c-.067-.039-.121-.093-.159-.158l-.001-.002-.107-.213v-.693l.107-.16.16-.16h.373l.16.16.107.16v.32z"/></symbol><symbol id="icon-Logo-2" viewBox="0 0 57 32"><path d="M26.725 3.163h-.069l-.336-.011h-.297c-.226 0-.45.006-.672.017l.031-.001c-1.941.107-3.84.597-5.605 1.429l-.229.112v11.808l.539-.181c1.729-.623 3.724-.994 5.802-1.019h.011v1.552l-.565.016h-.043c-2.689.149-5.175.892-7.369 2.098l.089-.045V3.786c1.196-.71 2.58-1.288 4.045-1.662l.11-.024c1.172-.314 2.518-.497 3.907-.501h.232c.973.003 1.916.129 2.814.364l-.078-.017v1.531c-.544-.134-1.188-.236-1.848-.286l-.04-.002h-.037c-.133-.011-.267-.027-.389-.027zm2.688 1.562c.301.019.653.03 1.008.03 1.474 0 2.904-.19 4.266-.547l-.117.026c1.503-.383 2.82-.911 4.045-1.586l-.087.044v14.875c-1.196.711-2.579 1.291-4.044 1.667l-.11.024c-1.28.325-2.592.496-3.909.501h-.091c-1.023 0-2.015-.128-2.963-.37l.083.018V4.436c.553.135 1.209.238 1.881.286l.039.002zm7.574.118-.539.181c-1.791.645-3.858 1.017-6.011 1.017-.337 0-.673-.009-1.006-.027l.046.002-.437-.027v12.144l.373.032c.309.024.669.037 1.031.037 1.263 0 2.488-.163 3.655-.47l-.1.022c1.056-.271 1.972-.612 2.84-1.036l-.088.039.235-.107V4.842zM19.061 24.112c-.145-.148-.348-.241-.572-.241-.011 0-.022 0-.032.001h.002c-.117 0-.235.021-.347.064-.3.12-.508.408-.508.745 0 .014 0 .028.001.041v-.002 2.027c0 .139.021.283.08.411.053.107.117.197.203.272.08.069.176.117.277.144s.203.043.304.043c.464-.009.837-.388.837-.853v-.224h-.533v.176c.005.064 0 .128-.027.181-.017.046-.042.085-.075.117-.06.046-.136.073-.218.075-.011.002-.023.002-.036.002-.088 0-.166-.043-.215-.108v-.001c-.047-.073-.075-.162-.075-.257v-.015.001-1.888c0-.107.021-.208.069-.299.048-.075.131-.124.226-.124.011 0 .021.001.032.002h-.001.009c.092 0 .173.044.225.111v.001c.057.072.091.163.091.263v.185h.523v-.215c0-.243-.091-.465-.241-.634l.001.001zm3.142-.021c-.162-.136-.374-.219-.604-.219-.112 0-.22.02-.32.055l.007-.002c-.107.037-.197.091-.277.16-.091.085-.16.181-.208.288-.053.123-.08.256-.075.395v1.936c-.005.139.021.272.075.4.048.107.117.197.208.267.08.08.171.139.277.176.094.035.202.055.315.055s.221-.02.321-.057l-.006.002c.329-.114.562-.421.562-.783 0-.019-.001-.038-.002-.057v.003-1.941c.001-.011.001-.024.001-.038 0-.252-.107-.48-.278-.639zm-.246 2.613c.001.009.001.019.001.029 0 .1-.041.189-.108.253-.067.055-.153.089-.248.089s-.181-.034-.249-.09h.001c-.067-.063-.108-.153-.108-.252 0-.011 0-.022.002-.033v.001-1.936c-.001-.009-.001-.02-.001-.031 0-.099.041-.188.108-.251.067-.055.153-.089.248-.089s.181.034.249.09h-.001c.067.063.108.153.108.252 0 .011 0 .022-.002.033v-.001 1.936zm4.374.869v-3.68h-.512l-.667 1.947h-.011l-.672-1.947h-.501v3.675h.523v-2.24h.011l.512 1.584h.267l.517-1.579h.005v2.235h.528zm2.981-3.413c-.08-.096-.181-.16-.299-.203-.109-.037-.234-.059-.365-.059h-.793v3.675h.523v-1.44h.267c.165.011.325-.021.475-.096.212-.132.361-.347.405-.597l.001-.005c.021-.124.032-.266.032-.411 0-.187-.02-.369-.057-.545l.003.017c-.036-.134-.103-.249-.192-.342zm-.267 1.12c-.005.064-.021.128-.053.187-.032.053-.075.107-.133.128-.068.034-.148.053-.233.053h-.252v-1.253h.267c.085 0 .16.011.24.048.053.027.096.075.123.133.026.06.042.129.043.202v.502zm2.742-1.381h-.427l-.8 3.675h.523l.155-.789h.709l.16.789h.517l-.827-3.675zm-.48 2.384.261-1.333h.005l.256 1.333h-.523zm3.866-.171h-.011l-.789-2.213h-.501v3.675h.523v-2.208h.011l.795 2.208h.491v-3.68h-.523v2.213zm3.2-2.213-.427 1.461h-.005l-.427-1.461h-.549l.72 2.123v1.547h.523v-1.547l.72-2.123h-.555zM17.6 28.608h.251v.709h.171v-.709h.251v-.144h-.672v.144zm2.123-.144-.331.853h.181l.069-.192h.341l.069.192h.187l-.336-.853h-.181zm-.027.517.112-.32.117.32h-.229zm2.117.022h.203v.107c-.055.046-.125.073-.202.075H21.8c-.067 0-.128-.031-.167-.08-.04-.057-.065-.128-.065-.205 0-.007 0-.013.001-.02v.001c0-.187.08-.283.245-.283.005 0 .011-.001.017-.001.083 0 .154.056.175.133v.001l.171-.032c-.037-.165-.16-.251-.363-.251h-.016c-.109 0-.208.041-.283.107-.077.076-.124.18-.124.296 0 .012 0 .024.002.036v-.002c0 .117.032.235.107.32.076.079.183.129.301.129.009 0 .017 0 .026-.001h-.001c.133 0 .267-.048.363-.139v-.336h-.373v.144zm2.144-.539h-.171v.853h.597v-.144h-.427v-.709zm1.814 0h-.176v.853h.176v-.853zm1.77.571-.352-.571h-.165v.853h.16v-.555l.341.555h.171v-.853h-.16v.571zm1.6-.091h.427V28.8h-.427v-.192h.453v-.144h-.629v.853h.651v-.144h-.48v-.229zm3.878-.144h-.336v-.336h-.171v.853h.171v-.373h.336v.373h.171v-.853h-.171v.336zm1.61.144h.427V28.8h-.427v-.192h.459v-.144h-.629v.853h.645v-.144h-.475v-.229zm2.182 0c.149-.027.224-.107.224-.24.001-.007.001-.016.001-.024 0-.066-.032-.125-.081-.162h-.001c-.064-.034-.141-.054-.222-.054-.01 0-.02 0-.03.001h.001-.363v.853h.171v-.357h.032c.037 0 .075.005.107.021.027.016.053.037.064.064l.187.267h.203l-.107-.16c-.043-.085-.107-.16-.187-.213zm-.171-.117h-.128v-.213h.133c.059-.005.123 0 .176.016.027.02.044.051.044.086 0 .038-.019.071-.049.09-.043.014-.093.022-.145.022-.011 0-.021 0-.032-.001h.001zm1.819.117h.427V28.8h-.427v-.192h.459v-.144h-.629v.853h.645v-.144h-.475v-.229z"/></symbol><symbol id="icon-Logo-3" viewBox="0 0 57 32"><path d="m19.413 26.187.16.107-.32.213-.48.107c-.16 0-.267 0-.427-.107l-.32-.16-.213-.32c-.049-.118-.078-.256-.078-.4s.029-.282.08-.407l-.003.007.213-.32c.107-.053.213-.16.373-.16.127-.043.274-.067.427-.067s.299.025.436.07l-.01-.003.32.16-.107.107h-.16l-.053-.053c-.115-.067-.253-.107-.4-.107h-.028.001l-.32.053-.267.16c0 .107-.107.16-.16.267v.64l.16.213.267.16h.48c.144-.016.272-.074.374-.161l-.001.001h.053zm3.36-.587-.053.427-.267.32-.32.16c-.267.107-.587.107-.907 0-.122-.038-.229-.092-.323-.162l.003.002-.213-.32c-.049-.118-.078-.256-.078-.4s.029-.282.08-.407l-.003.007c0-.107.107-.213.213-.32l.32-.16c.32-.107.64-.107.907 0l.32.16c.197.167.322.416.322.693 0 .019-.001.038-.002.057v-.003zm-.32 0v-.267c-.064-.205-.222-.363-.422-.425l-.005-.001c-.096-.031-.206-.049-.32-.049s-.224.018-.328.051l.008-.002-.267.16-.16.267v.587c.064.205.222.363.422.425l.005.001h.64l.213-.16c.107-.053.16-.16.16-.267l.053-.267zm2.614.373v.053l.053-.053v-.107l.8-1.173h.373v1.867h-.267v-1.493l-.747 1.173-.107.053h-.107l-.907-1.227v1.547h-.267v-1.867h.32l.747 1.173.053.107zm2.773-.106v.693h-.267v-1.867h1.013c.107 0 .16.107.267.16l.107.16.053.267v.213l-.213.213-.213.107-.373.053h-.373zm0-.214h.587l.16-.107.107-.107v-.373c0-.053 0-.107-.107-.16l-.373-.107h-.373v.8zm3.947.907h-.32l-.213-.533h-1.013l-.213.533h-.32l.853-1.867h.32l.907 1.867zm-1.44-.693h.8l-.32-.747-.107-.213v.213l-.373.747zm2.72-1.174 1.28 1.44v-1.44h.267v1.867h-.213l-1.333-1.493v1.44h-.267V24.64h.213zm3.68 1.12v.747h-.267v-.747l-.853-1.12H36l.533.8c.019.044.037.097.052.152l.002.008.053-.107.053-.053.533-.747v-.053h.32l-.747 1.12zm-11.84-4.32h.427c1.934-.748 3.542-1.978 4.727-3.546l.019-.027c1.173-1.6 1.76-3.413 1.707-5.333l-2.133-1.813c.131.595.206 1.278.206 1.979 0 1.428-.312 2.783-.871 4.001l.025-.06c-.908 1.992-2.315 3.621-4.065 4.774l-.042.026z"/><path d="M24.16 21.333v.053c2.027-1.227 3.52-2.933 4.373-4.907s.96-4.16.373-6.187l-3.04-2.667c.962 1.642 1.53 3.616 1.53 5.722 0 3.105-1.234 5.922-3.239 7.987l.003-.003zm10.453-6.506c-.585 2.2-1.871 4.04-3.6 5.315l-.026.019-1.76 1.067c1.558-.405 2.916-1.105 4.073-2.042l-.02.016c1.067-.907 2.027-2.027 2.56-3.253l-1.227-1.067z"/><path d="m34.133 14.56-1.813-1.6c0 1.813-.587 3.52-1.653 5.013s-2.56 2.72-4.373 3.573l1.227-.053c1.653-.587 3.147-1.6 4.267-2.773 1.087-1.123 1.888-2.529 2.28-4.098l.013-.062zm-9.706-8.053L22.294 4.64c-1.896.618-3.489 1.729-4.679 3.182l-.014.018c-1.087 1.346-1.749 3.075-1.76 4.957v.003c0 1.973.747 3.84 2.133 5.333 1.387 1.6 3.36 2.667 5.493 3.2 1.996-2.037 3.228-4.83 3.228-7.91 0-2.593-.873-4.982-2.341-6.89l.02.027zm14.56 7.733c0-2.293-1.067-4.533-2.933-6.133-1.867-1.653-4.427-2.56-7.093-2.613-1.227 0-2.453.213-3.627.587l13.067 11.307c.427-1.013.64-2.08.64-3.147z"/></symbol><symbol id="icon-Logo-4" viewBox="0 0 57 32"><path d="M12.88 11.253c-1.28 0-2.32.923-2.32 2.059 0 1.141 1.04 2.059 2.315 2.059 1.28 0 2.32-.917 2.32-2.059 0-1.136-1.04-2.059-2.315-2.059zm17.093-.656c-.005-1.579-.715-3.093-1.973-4.213C26.752 5.3 25.111 4.64 23.316 4.64h-.049.003c-1.776 0-3.483.629-4.736 1.749-1.191 1.025-1.948 2.526-1.973 4.204v8.708s13.413-1.328 13.413-8.704zM5.867 22.16c0 1.099.496 2.149 1.371 2.928.869.756 2.013 1.216 3.263 1.216h.029-.001c1.237 0 2.421-.437 3.296-1.216.827-.714 1.353-1.758 1.371-2.925v-6.056s-9.328.923-9.328 6.053zm4.661 1.083c-.24 0-.48-.059-.677-.181-.195-.114-.348-.28-.445-.479l-.003-.007c-.059-.122-.093-.265-.093-.416 0-.076.009-.149.025-.22l-.001.007c.048-.213.16-.4.336-.555.17-.15.382-.255.616-.297l.008-.001c.235-.037.48-.016.704.064s.416.219.549.4c.127.166.204.377.204.606 0 .306-.137.579-.352.763l-.001.001c-.117.107-.251.181-.4.24-.149.053-.304.08-.469.08zm8.528-1.942v2.277h-.469v-2.277h.469zm.907.971v.368h-1.035v-.368h1.035zm.106-.971v.368h-1.136v-.368h1.141zm2.144 1.083v.107c0 .176-.027.331-.069.469-.053.139-.117.256-.203.352s-.187.171-.304.219c-.117.053-.251.08-.395.08-.139 0-.267-.027-.389-.08-.117-.053-.219-.123-.304-.219-.091-.096-.16-.213-.203-.352-.044-.132-.07-.284-.07-.442v-.023.001-.107c0-.176.021-.331.069-.469s.107-.256.197-.352c.085-.096.187-.171.304-.219.123-.053.251-.08.395-.08s.272.027.389.08c.123.053.224.123.309.219s.155.213.197.352c.053.139.075.293.075.464zm-.474.107v-.107c0-.123-.011-.229-.032-.32a.68009.68009 0 0 0-.098-.232l.002.003c-.075-.117-.204-.193-.351-.193-.008 0-.016 0-.023.001h.001-.015c-.146 0-.275.073-.352.185l-.001.001c-.032.064-.064.144-.091.235-.02.089-.032.192-.032.297v.024-.001.107c0 .123.011.229.032.32.027.096.053.171.101.235.043.064.091.107.155.144.059.032.133.048.213.048.075 0 .144-.016.208-.053.063-.034.115-.08.154-.137l.001-.001c.043-.064.075-.139.096-.235.021-.091.032-.197.032-.32zm1.994.49v-.009c0-.035-.006-.069-.017-.1l.001.002c-.015-.037-.039-.068-.069-.09h-.001a.60357.60357 0 0 0-.13-.084l-.004-.002c-.062-.029-.138-.058-.216-.082l-.014-.004-.293-.107c-.091-.043-.17-.093-.242-.151l.002.002c-.069-.053-.128-.123-.165-.197-.04-.073-.064-.161-.064-.253V21.9c0-.093.024-.18.065-.256l-.001.003c.043-.08.101-.149.176-.203s.16-.101.267-.128c.098-.029.211-.045.327-.045.163 0 .318.032.459.091l-.008-.003c.123.064.219.144.288.251s.107.224.107.363h-.469v-.017c0-.058-.014-.112-.039-.161l.001.002c-.029-.053-.073-.096-.126-.122l-.002-.001c-.056-.027-.122-.043-.192-.043-.008 0-.015 0-.023.001h.001-.011c-.067 0-.131.014-.189.039l.003-.001c-.051.02-.092.053-.122.095l-.001.001c-.027.038-.043.085-.043.137v.002c0 .037.011.075.032.107.016.032.048.059.085.085l.144.08.192.069c.123.037.235.08.325.128.096.043.176.096.24.16.118.108.192.262.192.434v.009c0 .101-.021.192-.053.267-.043.08-.096.144-.171.203-.075.053-.16.091-.267.123-.095.026-.204.04-.317.04-.239 0-.463-.067-.654-.182l.006.003c-.178-.122-.293-.323-.293-.552v-.014.001h.469c0 .069.011.133.037.181.021.048.053.085.091.117s.085.053.144.064c.053.016.117.021.181.021.085 0 .149-.011.203-.032.094-.036.16-.125.16-.23v-.005zm1.808-1.68v2.277h-.475v-2.277h.469zm.694 0v.368h-1.851v-.368h1.856zm1.797 1.91v.368h-1.205v-.368h1.211zm-1.056-1.91v2.277h-.469v-2.277h.469zm.901.928v.357h-1.056v-.357h1.056zm.155-.928v.368h-1.211v-.368h1.211zm.272 0h.853c.171 0 .32.027.448.08.123.053.219.128.288.229.069.107.107.229.107.373 0 .128-.027.229-.069.32-.037.085-.096.16-.171.213-.075.059-.16.107-.267.139l-.144.08h-.736v-.368h.56c.068 0 .132-.016.189-.044l-.003.001c.053-.027.096-.069.123-.123.027-.05.043-.11.043-.173v-.023c0-.062-.014-.121-.039-.174l.001.003c-.028-.054-.072-.097-.126-.122l-.002-.001c-.056-.027-.123-.043-.193-.043h-.016.001-.373v1.909h-.475V21.3zm1.275 2.278-.517-1.013.491-.005.528.997v.021h-.501zm2.458-.811h-.571V22.4h.576c.091 0 .16-.016.219-.043.053-.032.101-.075.123-.128.027-.053.043-.107.043-.176s-.016-.136-.044-.195l.001.003a.32486.32486 0 0 0-.121-.138l-.001-.001c-.058-.034-.127-.053-.201-.053h-.434v1.909h-.469v-2.277h.885c.181 0 .331.032.459.096.236.114.395.351.395.626v.026-.001c0 .149-.032.277-.101.384-.064.107-.16.187-.293.245-.128.059-.277.091-.459.091zm2.704.443v.368H33.53v-.368h1.211zm-1.056-1.91v2.277h-.469v-2.277h.469zm.902.928v.357h-1.056v-.357h1.056zm.154-.928v.368H33.53v-.368h1.211zm1.323 0v2.277h-.469v-2.277h.469zm.699 0v.368h-1.856v-.368h1.856zm1.797 1.91v.368h-1.211v-.368h1.211zm-1.061-1.91v2.277h-.469v-2.277h.469zm.901.928v.357h-1.051v-.357H38.4zm.16-.928v.368h-1.211v-.368h1.205zm.267 0h.853c.176 0 .32.027.448.08s.224.128.288.229c.069.107.107.229.107.373 0 .128-.021.229-.064.32-.043.085-.101.16-.176.213-.075.059-.16.107-.261.139l-.144.08h-.741v-.368H39.702c.068 0 .132-.016.189-.044l-.002.001c.053-.027.096-.069.123-.123.027-.05.043-.11.043-.173v-.012c0-.066-.016-.129-.044-.185l.001.002c-.027-.053-.069-.096-.121-.122l-.002-.001c-.057-.027-.123-.043-.193-.043h-.021.001-.373v1.909h-.469v-2.277zm1.28 2.278-.523-1.013.496-.005.523.997v.021h-.501zm1.957-.598v-.009c0-.035-.006-.069-.017-.1l.001.002c-.015-.037-.039-.068-.069-.09h-.001a.60357.60357 0 0 0-.13-.084l-.004-.002c-.062-.029-.138-.058-.216-.082l-.014-.004-.293-.107c-.092-.043-.17-.093-.242-.151l.002.002c-.069-.053-.128-.123-.165-.197-.037-.071-.059-.155-.059-.243v-.013.001-.013c0-.089.022-.173.06-.246l-.001.003c.043-.08.101-.149.176-.203s.16-.101.267-.128c.098-.029.211-.045.327-.045.163 0 .318.032.459.091l-.008-.003c.123.064.219.144.288.251s.107.224.107.363h-.464v-.008c0-.062-.016-.12-.044-.17l.001.002c-.029-.053-.073-.096-.126-.122l-.002-.001c-.056-.027-.122-.043-.191-.043h-.017.001-.016c-.067 0-.131.014-.189.039l.003-.001c-.051.02-.092.053-.122.095l-.001.001c-.027.038-.043.085-.043.137v.002c0 .037.011.075.032.107.016.032.048.059.085.085l.144.08.192.069c.128.037.235.08.331.128.091.043.171.096.235.16.118.108.192.262.192.434v.009c0 .101-.016.192-.053.267-.043.08-.096.144-.171.203-.075.053-.16.091-.261.123-.096.026-.207.041-.321.041-.24 0-.465-.067-.656-.183l.006.003c-.178-.122-.293-.323-.293-.552v-.014.001h.475c0 .069.011.133.032.181s.053.085.091.117c.043.032.091.053.144.064.053.016.117.021.181.021.085 0 .149-.011.203-.032.094-.036.16-.125.16-.23v-.005z"/></symbol><symbol id="icon-Logo-5" viewBox="0 0 57 32"><path d="M14.272 23.861c.128.144.197.331.192.517.011.123-.016.245-.069.363-.053.112-.128.213-.229.299-.256.171-.565.256-.885.24h-1.547v-3.307h1.515c.025-.002.054-.003.083-.003.283 0 .545.085.765.23l-.005-.003c.096.075.176.171.224.277.053.107.075.224.069.341.011.181-.053.357-.176.501-.117.133-.277.224-.459.261.203.032.389.133.523.283zm-1.813-.501h.64c.149.011.299-.027.416-.107.053-.043.085-.091.107-.149.027-.053.037-.117.032-.176.001-.01.002-.022.002-.034 0-.051-.01-.1-.029-.145l.001.002c-.025-.057-.062-.105-.106-.144h-.001c-.105-.072-.234-.114-.373-.114-.019 0-.038.001-.056.002h.002-.64v.864zm1.12 1.269c.053-.043.091-.096.117-.155.027-.053.037-.123.037-.181 0-.006.001-.013.001-.02 0-.06-.014-.118-.039-.169l.001.002c-.029-.062-.071-.114-.122-.154l-.001-.001a.70983.70983 0 0 0-.394-.119c-.015 0-.03 0-.045.001h.002-.683v.907h.693c.149.011.304-.032.427-.117zm3.792.651-.837-1.291h-.32v1.291h-.725v-3.307h1.376c.029-.002.064-.003.099-.003.325 0 .624.107.865.289l-.004-.003c.203.182.33.446.33.739 0 .239-.084.457-.224.628l.001-.002c-.176.181-.411.299-.661.336l.896 1.323h-.789zm-1.163-1.744h.597c.411 0 .619-.16.619-.496v-.021c0-.066-.014-.128-.039-.184l.001.003c-.028-.067-.068-.124-.117-.17-.112-.085-.254-.136-.408-.136-.02 0-.039.001-.058.002h.003-.603l.005 1.003zm5.131 1.077h-1.445l-.256.667h-.763l1.333-3.269h.821l1.323 3.269h-.763l-.256-.667zm-.192-.501-.533-1.392-.528 1.392h1.061zm5.157 1.168h-.72l-1.616-2.245v2.24h-.715v-3.296h.72l1.616 2.256v-2.256h.72v3.301zm4.112-.795c-.149.251-.373.453-.651.587-.315.144-.661.213-1.013.208h-1.28v-3.307h1.28c.352-.005.699.064 1.013.208.277.128.501.325.651.576.14.249.223.547.223.864s-.083.615-.227.873l.005-.009zm-.821-.074c.203-.219.32-.501.32-.789s-.117-.571-.32-.789c-.223-.175-.507-.28-.816-.28-.032 0-.063.001-.095.003h.004-.496v2.133h.501c.325.021.651-.08.901-.277zm-7.803-20.8s9.296 3.211 9.099 7.867v7.867s-9.291-3.216-9.099-7.867V3.611zm17.387 13.893c1.686-1.07 3.696-1.784 5.855-1.99l.054-.004v-2.464c-2.445.858-4.467 2.411-5.884 4.421l-.025.038z"/><path d="M38.123 18.24c1.526-2.691 3.961-4.717 6.878-5.682l.087-.025V5.424S31.84 10.016 32.123 16.64v11.2s.587-.203 1.52-.587c0-.363 0-.72.043-1.083.331-3.247 1.986-6.053 4.41-7.905l.027-.02z"/><path d="M36.864 22.405c.069-.773.224-1.547.464-2.293-1.669 1.773-2.721 4.143-2.805 6.757v.016c.752-.336 1.627-.747 2.549-1.232-.235-1.067-.304-2.16-.208-3.248zm.523.043c-.085.981-.027 1.973.165 2.933 3.621-1.979 7.685-5.04 7.531-8.747v-.32c-2.658.265-5.026 1.334-6.901 2.957l.016-.013c-.415.933-.701 2.015-.803 3.15l-.003.039z"/></symbol><symbol id="icon-Logo-6" viewBox="0 0 57 32"><path d="M28.491 14.613c-.202-.262-.323-.594-.323-.955 0-.035.001-.071.003-.105v.005-1.536c0-.475.107-.832.32-1.077s.587-.368 1.104-.363c.485 0 .837.107 1.04.309.224.267.331.592.309.923v.357h-.875v-.363c0-.123-.005-.24-.027-.357a.34908.34908 0 0 0-.122-.213h-.001c-.079-.054-.178-.087-.283-.087-.013 0-.026 0-.038.001h.002c-.009-.001-.021-.001-.032-.001-.112 0-.215.034-.301.093l.002-.001c-.074.058-.127.139-.149.232l-.001.003c-.021.123-.032.251-.032.373v1.867c-.016.187.027.363.112.528.043.053.107.101.176.128.05.019.107.03.167.03.02 0 .04-.001.059-.004h-.002c.012.001.027.002.041.002.1 0 .193-.031.27-.083l-.002.001c.069-.056.118-.136.133-.227v-.002c.016-.123.027-.251.027-.373v-.384h.875v.347c.021.341-.085.683-.304.965-.203.229-.544.341-1.045.341-.507 0-.885-.123-1.104-.373zm3.648.022c-.224-.24-.331-.587-.331-1.051v-1.616c0-.459.107-.8.331-1.04.219-.235.587-.352 1.109-.347.512 0 .88.112 1.099.347.224.235.336.581.336 1.04v1.616c0 .459-.112.805-.336 1.045-.224.245-.587.363-1.099.363s-.891-.123-1.109-.357zm1.514-.39c.08-.149.117-.315.107-.48v-1.979c.011-.16-.027-.32-.107-.469-.046-.057-.105-.101-.173-.127l-.003-.001c-.05-.019-.108-.031-.168-.031-.021 0-.043.001-.063.004h.002c-.019-.003-.041-.004-.064-.004-.061 0-.12.011-.174.032l.003-.001c-.073.027-.134.071-.181.127l-.001.001c-.075.144-.112.309-.107.469v1.989c-.005.16.027.331.107.48.109.098.254.158.413.158.08 0 .156-.015.226-.042l-.004.001c.075-.027.133-.069.187-.117v-.011zm2.08-3.621h.944l.709 2.987.725-2.987h.917l.091 4.309h-.677l-.075-2.992-.693 2.992h-.555l-.725-3.003-.064 3.003h-.688l.085-4.309zm4.443 0h1.467c.848 0 1.269.411 1.269 1.227 0 .779-.443 1.173-1.333 1.173h-.501v1.909h-.907l.005-4.309zm1.253 1.845c.091.005.181 0 .267-.021.085-.027.165-.064.235-.117.101-.144.149-.32.128-.485 0-.133-.011-.267-.043-.389-.015-.048-.038-.089-.07-.123-.031-.035-.068-.063-.11-.084l-.002-.001c-.128-.053-.267-.075-.405-.069h-.352v1.291h.352zm2.784-1.845h.976l1.003 4.309h-.848l-.197-.992h-.869l-.203.992h-.853l.997-4.309zm.838 2.816-.341-1.808-.336 1.813h.677zm1.946-2.816h.635l1.211 2.459V10.63h.757v4.304h-.603l-1.221-2.56v2.56h-.779v-4.309zm4.363 2.667-1.013-2.661h.853l.613 1.707.576-1.707h.832l-.992 2.667v1.637h-.875v-1.643zm-21.467 3.525v.224h-.741v1.755h-.309V17.04h-.747v-.224h1.797zm2.32 1.979h-.245c-.024 0-.046-.008-.064-.022-.018-.01-.033-.025-.042-.042v-.001l-.213-.469h-1.024l-.213.469c-.006.021-.018.039-.032.053-.016.01-.036.017-.057.017-.004 0-.008 0-.013-.001h-.24l.907-1.973h.32l.912 1.968zm-1.504-.736h.853l-.363-.8c-.023-.052-.044-.116-.062-.182l-.002-.01-.037.107-.032.085-.357.8zm3.062.538h.171c.101-.005.196-.024.285-.055l-.007.002.117-.053v-.443h-.364c-.018 0-.034-.006-.047-.016-.004-.004-.008-.01-.011-.016l-.005-.021v-.149h.704v.757c-.174.108-.381.179-.603.197h-.005c-.091.011-.176.016-.267.016-.16 0-.309-.027-.459-.075-.14-.049-.26-.12-.364-.209l.001.001a.96496.96496 0 0 1-.227-.303l-.002-.006c-.059-.133-.085-.272-.085-.411 0-.01-.001-.022-.001-.034 0-.277.124-.524.319-.691l.001-.001c.096-.091.224-.16.357-.208.142-.048.305-.076.475-.076.092 0 .183.008.271.024l-.009-.001c.149.021.284.066.407.131l-.007-.003c.053.027.107.064.16.101l-.091.123c-.008.012-.019.021-.032.026-.011.006-.024.01-.037.011-.02-.001-.038-.007-.054-.016h.001c-.032-.011-.059-.027-.091-.048-.144-.071-.313-.112-.492-.112h-.026.001-.018c-.119 0-.234.02-.341.056l.008-.002c-.107.037-.192.091-.267.16-.072.066-.13.146-.169.236l-.002.004c-.08.213-.08.448 0 .661.126.267.393.449.702.449.035 0 .069-.002.102-.007h-.004zm2.89-.032h.987v.229h-1.291v-1.973h.309l-.005 1.744zm2.016.23h-.309v-1.973h.309v1.973zm1.152-1.968c.021.011.037.021.048.037l1.323 1.488v-1.541h.267v1.984h-.149c-.027 0-.048 0-.069-.011-.019-.01-.034-.022-.048-.037l-1.323-1.493v1.541h-.261v-1.973h.213zm3.926-.011v.213h-1.099v.656h.891v.213h-.891v.672h1.099v.213h-1.419v-1.968h1.419zM11.285 4.619l13.76 3.371v11.819l-13.76-3.371V4.619zm-.88-1.014v13.408l15.52 3.808V7.413L10.4 3.61z"/><path d="M18.72 27.04 3.2 23.221V9.829l15.52 3.808v13.397z"/><path d="M10.661 4.464 24.24 7.797l-5.776 4.981L4.885 9.45l5.776-4.987zm-.256-.853L3.2 9.83l15.52 3.808 7.2-6.224L10.4 3.611zm9.19 22.672 6.331-5.467-6.331-1.552v7.019z"/></symbol><symbol id="icon-smartphone" viewBox="0 0 20 32"><path d="M17 0H3C1.34 0 0 1.34 0 3v26c0 1.66 1.34 3 3 3h14c1.66 0 3-1.34 3-3V3c0-1.66-1.34-3-3-3zM3 2h14c.56 0 1 .44 1 1v21H2V3c0-.56.44-1 1-1zm14 28H3c-.552 0-1-.448-1-1v-3h16v3c0 .552-.448 1-1 1z"/><path d="M4.7 27.48c.4.36.4.96 0 1.32-.186.164-.431.264-.7.264s-.514-.1-.701-.265l.001.001c-.177-.165-.288-.399-.288-.66s.111-.495.288-.659l.001-.001c.4-.36 1-.36 1.4 0z"/></symbol><symbol id="icon-twitter" viewBox="0 0 32 32"><path d="M32 6.08c-1.184.528-2.464.864-3.776 1.04 1.36-.816 2.4-2.08 2.88-3.632-1.28.752-2.672 1.28-4.16 1.6-1.202-1.298-2.915-2.107-4.817-2.107-3.623 0-6.56 2.937-6.56 6.56 0 .538.065 1.06.187 1.56l-.009-.045c-5.462-.281-10.265-2.883-13.477-6.83l-.027-.034c-.558.949-.887 2.089-.887 3.307 0 2.26 1.134 4.255 2.865 5.446l.022.014c-1.04 0-2.08-.32-2.96-.8v.064c0 3.2 2.272 5.84 5.264 6.448-.518.147-1.113.232-1.728.232-.442 0-.873-.044-1.29-.127l.042.007c.878 2.623 3.284 4.493 6.136 4.56h.008c-2.221 1.763-5.066 2.828-8.159 2.828-.547 0-1.087-.033-1.617-.098l.064.006c2.826 1.846 6.286 2.944 10.003 2.944h.065-.003c12.08 0 18.672-10 18.672-18.672 0-.288 0-.576-.032-.848 1.312-.928 2.4-2.08 3.296-3.408z"/></symbol><symbol id="icon-antenna" viewBox="0 0 32 32"><path fill="#212121" style="fill:var(--color4, #212121)" d="m30.766 22.08-8.457-8.503.96-4.571c.229.046.457.137.777.137h.025c1.187 0 2.149-.962 2.149-2.149s-.962-2.149-2.149-2.149-2.149.962-2.149 2.149c0 .245.041.481.117.701l-.005-.015-4.983.594L8.96.137C8.869.046 8.731 0 8.594 0s-.274.046-.366.137L6.719 1.646c-.229.229-.229.549 0 .777l.823.777c-1.129 2.053-1.794 4.499-1.794 7.1 0 4.161 1.7 7.925 4.444 10.635l.002.002-.046.549v6.217H3.702c-1.464 0-2.651 1.187-2.651 2.651v1.051c0 .32.274.549.549.549h24.549c.274 0 .503-.229.503-.549v-1.051c0-1.463-1.189-2.651-2.651-2.651h-6.4V24.96c.899.191 1.932.3 2.991.3 2.586 0 5.02-.653 7.146-1.803l-.08.039.869.823c.091.091.229.137.366.137s.274-.046.366-.137l1.509-1.509c.229-.229.229-.549 0-.777zM23.314 6.217c.186-.169.434-.272.706-.272.581 0 1.051.471 1.051 1.051 0 .555-.431 1.01-.976 1.049h-.003c-.021.002-.046.002-.072.002-.581 0-1.051-.471-1.051-1.051 0-.309.133-.586.345-.779l.001-.001zm-1.234 3.52-.594 2.926-1.189-1.143 1.783-1.783zm-.594-.914-1.92 1.92-1.509-1.509 3.429-.411zM24 28.8c.914 0 1.6.731 1.6 1.6v.549H2.149V30.4c0-.914.686-1.6 1.6-1.6H24zm-7.451-2.149v1.097H11.2v-1.097h5.349zM11.2 25.6v-4.069c0-1.28 1.189-2.331 2.651-2.331 1.509 0 2.697 1.051 2.697 2.331V25.6h-5.349zm6.4-1.691v-2.423c0-1.829-1.691-3.383-3.749-3.383-1.326 0-2.56.64-3.246 1.783-2.369-2.481-3.827-5.85-3.827-9.559 0-2.319.57-4.505 1.578-6.426l-.036.076L26.926 22.72c-1.816.94-3.965 1.492-6.242 1.492-1.093 0-2.157-.127-3.177-.367l.094.019zm11.291-.686-.731-.823L8.594 2.743l-.823-.686.777-.777 7.909 8L29.714 22.4l-.777.777z"/><path fill="#2196f3" style="fill:var(--color5, #2196f3)" d="M13.897 20.251c-.884 0-1.6.716-1.6 1.6s.716 1.6 1.6 1.6c.884 0 1.6-.716 1.6-1.6s-.716-1.6-1.6-1.6zm.366 2.012c-.101.112-.247.183-.409.183-.303 0-.549-.246-.549-.549s.244-.547.546-.549h.003c.303 0 .549.246.549.549 0 .141-.053.269-.14.366z"/></symbol><symbol id="icon-astronaut" viewBox="0 0 32 32"><path fill="#2196f3" style="fill:var(--color5, #2196f3)" d="M31.973 4.526c-.059-.192-.229-.334-.43-.366l-1.911-.274-.855-1.737c-.178-.361-.777-.361-.955 0l-.85 1.737-1.911.274c-.262.038-.46.261-.46.53 0 .151.063.287.163.385l1.385 1.344-.325 1.902c-.005.026-.007.056-.007.087 0 .295.239.535.535.535.089 0 .174-.022.248-.061l-.003.001 1.71-.896 1.705.896c.072.039.158.062.25.062.295 0 .535-.239.535-.535 0-.032-.003-.063-.008-.093v.003l-.329-1.902 1.385-1.349c.146-.137.197-.352.137-.549zm-2.46 1.325c-.128.123-.183.297-.155.471l.192 1.115-1.001-.526c-.072-.039-.158-.062-.249-.062s-.177.023-.252.064l.003-.001-1.001.526.192-1.115c.032-.174-.027-.347-.151-.471l-.814-.791 1.12-.16c.174-.027.325-.137.402-.293l.503-1.015.498 1.015c.078.155.229.265.402.293l1.12.16-.809.791zM26.13 20.526h-1.065v1.065h1.07v-1.07zm0 2.13h-1.065v1.065h1.07v-1.065zm1.07-1.065h-1.065v1.065H27.2v-1.065zm-2.135 0H24v1.065h1.065v-1.065zm-2.665 4.8h-1.065v1.065H22.4v-1.065zm0 2.13h-1.065v1.07H22.4v-1.07zm1.065-1.065H22.4v1.065h1.065v-1.065zm-2.13 0h-1.07v1.065h1.07v-1.065zM16 24.256h-1.065v1.065H16v-1.065zm0 2.135h-1.065v1.065H16v-1.065zm1.065-1.07H16v1.07h1.065v-1.07zm-2.13 0h-1.07v1.07h1.07v-1.07zm-9.07-19.2H4.8v1.07h1.065v-1.07zm0 2.135H4.8v1.065h1.065V8.256zm1.07-1.065h-1.07v1.065h1.07V7.191zm-2.135 0H3.735v1.065H4.8V7.191z"/><path fill="#212121" style="fill:var(--color4, #212121)" d="M24.713 14.158c-.28-.376-.699-.636-1.179-.703l-.009-.001c-.076-.012-.164-.018-.253-.018-.411 0-.789.139-1.09.373l.004-.003-1.248.96-1.902 1.417-1.358-.539c2.423-1.088 4.114-3.511 4.114-6.322 0-3.822-3.122-6.93-6.962-6.93s-6.958 3.109-6.958 6.93c0 1.39.411 2.674 1.12 3.762l-2.77-.027-.023.005c-.055 0-.105.014-.155.032l-.037.014-.023.005-3.232 1.6-1.893.91c-.506.32-.837.877-.837 1.511 0 .985.798 1.783 1.783 1.783.303 0 .588-.075.838-.209l-.01.005 1.385-.736 2.263-1.17 1.358-.009L.86 23.555c-.306.299-.496.716-.496 1.177s.19.878.495 1.177c.302.302.719.488 1.179.488s.878-.187 1.179-.488l1.307-1.312 1.742-1.298.901.896-1.76 1.755-1.339 1.33c-.307.299-.498.717-.498 1.179s.191.88.498 1.179c.302.302.719.488 1.179.488s.878-.187 1.179-.488l3.483-3.47 1.015-1.006h-.005l.018-.018 5.166-5.659 3.474.498c.019.003.041.004.063.004.071 0 .139-.015.201-.042l-.003.001.05-.023c.018-.009.041-.014.059-.027l3.214-2.13.027-.032.041-.023 1.271-1.193c.347-.326.562-.788.562-1.3 0-.401-.132-.771-.355-1.068l.003.005zM2.13 17.769c-.109.071-.243.113-.386.113-.396 0-.716-.321-.716-.716 0-.252.13-.474.327-.602l.003-.002 1.317-.631.315.923.133.389-.992.526zm3.497-1.828-1.55.8L3.821 16l-.183-.535 2.03-1.006-.041 1.486zm15.1-6.615c0 .919-.219 1.783-.599 2.56l-4.183-1.897c-.042-.576-.341-1.074-.78-1.386l-.006-.004 1.463-4.859c2.377.754 4.105 2.971 4.105 5.586zm-11.79 0c.011-3.243 2.643-5.868 5.888-5.868.266 0 .528.018.784.052l-.03-.003-1.435 4.754-.055-.005c-1.032 0-1.869.834-1.874 1.865v.001c.012 1.026.847 1.852 1.874 1.852.687 0 1.287-.369 1.614-.92l.005-.009 3.858 1.755c-1.085 1.458-2.804 2.393-4.741 2.393-3.245 0-5.878-2.624-5.893-5.866v-.001zm5.957.8c0 .446-.361.807-.807.807s-.807-.361-.807-.807c0-.439.366-.8.809-.8s.805.361.805.8zM2.469 25.147c-.233.233-.617.229-.855 0-.109-.108-.177-.257-.177-.423s.068-.315.177-.423l.96-.96.855.85-.965.951zm3.213 3.731c-.233.238-.617.238-.855 0-.108-.108-.174-.256-.174-.421s.067-.313.174-.421l.96-.96.855.846-.96.96zm3.484-3.465-1.769 1.76-.85-.85 1.765-1.751c.041-.046.064-.091.091-.137l.023-.046c.018-.037.023-.082.027-.123 0-.027.014-.046.014-.073 0-.037-.014-.073-.018-.105l-.018-.096c-.023-.05-.055-.091-.091-.137l-.027-.041-1.609-1.6c-.014-.018-.037-.023-.055-.037-.032-.023-.059-.046-.091-.059a.50368.50368 0 0 0-.088-.031l-.003-.001c-.029-.009-.063-.015-.099-.018H6.27l-.105.023c-.032.009-.064.027-.091.046-.023.009-.046.014-.064.027L4.236 23.49l-.901-.901 2.4-2.386 4.361 4.293-.928.914zm6.816-7.018h-.046c-.007 0-.016-.001-.025-.001-.137 0-.262.052-.355.138l-.041.032-4.699 5.143-4.325-4.251 2.834-2.821c.098-.097.158-.231.158-.379 0-.295-.239-.535-.535-.535h-.007l-2.217.014.027-1.609 3.104.027c1.263 1.296 3.026 2.099 4.977 2.099.455 0 .899-.044 1.33-.127l-.044.007c.037.032.078.064.128.087l2.409.96.151.754.183.887-3.008-.425zm4.041.179-.311-1.559 1.445-1.079.379.503.567.754-2.08 1.381zm3.758-2.835-.841.786-.928-1.234.827-.64c.122-.093.276-.149.443-.149.037 0 .074.003.11.008l-.004-.001c.352.05.62.349.62.711 0 .206-.087.392-.226.523z"/><path fill="#212121" style="fill:var(--color4, #212121)" d="m13.6 18.546-2.139-2.135c-.097-.096-.23-.156-.377-.156s-.28.059-.377.156l-2.144 2.135c-.096.097-.156.23-.156.377s.059.28.156.377l2.149 2.135c.096.095.229.153.375.153s.278-.059.375-.153l2.139-2.135c.096-.097.156-.23.156-.377s-.059-.28-.156-.377zm-2.514 1.756-1.394-1.376 1.385-1.381 1.39 1.381-1.39 1.381zm6.08-15.232-.261 1.038c.073.018 1.737.453 1.737 2.149h1.07c0-2.016-1.669-2.967-2.546-3.186zm2.546 4.251h-1.07v1.07h1.07v-1.07z"/></symbol><symbol id="icon-clock" viewBox="0 0 32 32"><path fill="#212121" style="fill:var(--color4, #212121)" d="M31.296 15.301C31.295 6.849 24.443-.002 15.991-.002S.686 6.85.686 15.303c0 6.79 4.422 12.548 10.543 14.55l.108.031c.057.017.123.027.191.027.125 0 .242-.034.343-.093l-.003.002c.137-.082.233-.206.283-.357l3.863-12.251c1.048-.009 1.895-.861 1.895-1.911 0-1.055-.856-1.911-1.911-1.911-.3 0-.584.069-.836.192l.011-.005-5.102-5.106c-.112-.098-.259-.158-.421-.158-.353 0-.64.287-.64.64 0 .16.059.307.156.419l-.001-.001 5.106 5.111c-.121.241-.192.526-.192.826 0 .601.283 1.136.723 1.479l.004.003-3.685 11.671c-5.408-2.035-9.186-7.165-9.186-13.177 0-7.756 6.287-14.043 14.043-14.043s14.043 6.287 14.043 14.043c0 5.688-3.381 10.586-8.243 12.793l-.088.036-.398-1.874c-.066-.289-.32-.502-.625-.502-.162 0-.31.06-.423.159l.001-.001-3.84 3.429c-.127.117-.207.285-.207.471 0 .282.182.521.435.607l.005.001 4.901 1.563c.057.019.123.029.192.029.353 0 .64-.287.64-.64 0-.046-.005-.091-.014-.134l.001.004-.393-1.838c5.529-2.374 9.33-7.772 9.33-14.057v-.034.002zm-15.305-.64c.353 0 .64.287.64.64s-.287.64-.64.64c-.353 0-.64-.287-.64-.64s.287-.64.64-.64zm2.103 14.866 2.185-1.947.599 2.839-2.789-.891z"/><path fill="#2196f3" style="fill:var(--color5, #2196f3)" d="M15.355 3.186v1.275c-.001.016-.002.035-.002.054 0 .353.287.64.64.64s.64-.287.64-.64c0-.019-.001-.038-.002-.056v.002-1.28c0-.353-.287-.64-.64-.64s-.64.287-.64.64zM3.877 14.665c-.329.029-.586.303-.586.638s.257.609.584.638h1.277c.353 0 .64-.287.64-.64s-.287-.64-.64-.64h-1.28zm24.233 1.276c.353 0 .64-.287.64-.64s-.287-.64-.64-.64h-1.28c-.353 0-.64.287-.64.64s.287.64.64.64h1.28z"/></symbol><symbol id="icon-diagram" viewBox="0 0 32 32"><path fill="#2196f3" style="fill:var(--color5, #2196f3)" d="M14.903 14.949H16v4.8h-1.097v-4.8zm4.297 2.148h1.051v2.651H19.2v-2.651zm-8.549 1.6h1.097v1.051h-1.097v-1.006zm-3.2-.548h1.097v1.6H7.451v-1.6z"/><path fill="#212121" style="fill:var(--color4, #212121)" d="M1.6 28.297h25.6c.869 0 1.6-.731 1.6-1.6v-2.149c0-.914-.731-1.6-1.6-1.6h-.549V9.691l3.017-2.88c.213.112.465.178.733.178.884 0 1.6-.716 1.6-1.6s-.716-1.6-1.6-1.6c-.884 0-1.6.716-1.6 1.6 0 .234.05.455.14.655l-.004-.01-2.286 2.149V6.949c0-.869-.731-1.6-1.6-1.6H3.748c-.914 0-1.6.731-1.6 1.6v16h-.549c-.914 0-1.6.731-1.6 1.6v2.149c0 .914.731 1.6 1.6 1.6zM30.4 4.846c.047-.014.101-.023.157-.023.303 0 .549.246.549.549s-.246.549-.549.549c-.056 0-.11-.008-.161-.024l.004.001c-.229-.07-.392-.279-.392-.526s.163-.456.388-.525l.004-.001zM3.2 6.949c0-.274.229-.503.549-.503h21.303c.274 0 .549.229.549.503v2.286l-1.097 1.006V8.047c0-.32-.229-.549-.503-.549h-19.2c-.274 0-.549.229-.549.549V21.35c0 .32.274.549.549.549h19.2c.274 0 .503-.229.503-.549v-9.646l1.097-1.006v12.251h-22.4v-16zM8 13.897h-.022c-.884 0-1.6.716-1.6 1.6s.716 1.6 1.6 1.6c.436 0 .831-.174 1.12-.457l1.829.914c.229.137.503.091.686-.091l3.931-4.434 3.84 2.88c.229.183.503.137.686 0l3.383-3.2v8.137H5.35V8.549h18.103v2.697l-3.749 3.566-3.931-2.926c-.229-.183-.549-.137-.731.046l-3.977 4.526-1.463-.777v-.137c0-.914-.686-1.6-1.554-1.6zm.549 1.6c0 .303-.246.549-.549.549s-.549-.246-.549-.549c0-.303.246-.549.549-.549s.549.246.549.549zm3.2 8.549h5.303v.503c0 .32-.229.549-.549.549h-4.251c-.274 0-.503-.229-.503-.549v-.503zm-10.698.503c0-.274.274-.503.549-.503h9.051v.503c0 .914.731 1.6 1.6 1.6h4.251c.914 0 1.6-.686 1.6-1.6v-.503h9.097c.274 0 .503.229.503.503v2.149c0 .274-.229.549-.503.549h-25.6c-.274 0-.549-.274-.549-.549v-2.149z"/></symbol><symbol id="icon-envelope" viewBox="0 0 43 32"><path d="M38.667 0H4C1.787 0 0 1.787 0 4v24c0 2.213 1.787 4 4 4h34.667c2.213 0 4-1.787 4-4V4c0-2.213-1.787-4-4-4zm0 2.667h.011c.189 0 .368.039.531.11l-.009-.003-17.867 15.467L3.466 2.774c.154-.067.334-.107.523-.107h34.677zm0 26.666H4c-.736 0-1.333-.597-1.333-1.333V5.6l17.787 15.413c.234.206.542.332.88.332s.646-.126.881-.333l-.001.001L40.001 5.6V28c0 .736-.597 1.333-1.333 1.333z"/></symbol><symbol id="icon-facebook" viewBox="0 0 32 32"><path d="M21.328 5.312h2.928V.224C23.744.16 22.016 0 20 0c-4.224 0-7.104 2.656-7.104 7.52V12h-4.64v5.68h4.64V32h5.696V17.696h4.464L23.76 12h-5.168V8.08c0-1.648.448-2.768 2.736-2.768z"/></symbol><symbol id="icon-footer-facebook" viewBox="0 0 32 32"><path fill="#fff" style="fill:var(--color1, #fff)" d="M21.328 5.312h2.928V.224C23.744.16 22.016 0 20 0c-4.224 0-7.104 2.656-7.104 7.52V12h-4.64v5.68h4.64V32h5.696V17.696h4.464L23.76 12h-5.168V8.08c0-1.648.448-2.768 2.736-2.768z"/></symbol><symbol id="icon-close" viewBox="0 0 32 32"><path fill="#fff" style="fill:var(--color1, #fff)" d="M32 16a16 16 0 1 1-32 0 16 16 0 0 1 32 0z"/><path fill="none" stroke-width="1.1" d="M31.5 16a15.5 15.5 0 1 1-31 0 15.5 15.5 0 0 1 31 0z"/><path d="m22.4 10.8-1.2-1.2-4.7 4.7-4.7-4.7-1.1 1.2 4.7 4.7-4.7 4.7 1.1 1.1 4.7-4.7 4.7 4.7 1.2-1.1-4.7-4.7 4.7-4.7z"/></symbol><symbol id="icon-icon-send-1" viewBox="0 0 32 32"><path fill="#fff" style="fill: var(--color1, #fff)" d="M32 0l-32 18 10.267 3.733 15.733-14.667-12 16v8.933l5.733-6.667 7.333 2.667 4.933-28z"></path></symbol>
<symbol id="email-black" viewBox="0 0 32 32"><path d="M26.7 5.3H5.3A2.7 2.7 0 0 0 2.7 8v16c0 1.4 1.2 2.7 2.6 2.7h21.4c1.4 0 2.6-1.3 2.6-2.7V8c0-1.4-1.2-2.7-2.6-2.7zM26 11 16.7 17a1 1 0 0 1-1.4 0L5.9 11A1 1 0 1 1 7 9.2l8.9 5.4 8.9-5.4.6-.2a1 1 0 0 1 .6 2z"/></symbol><symbol id="phone-black" viewBox="0 0 32 32"><path d="M24.881 19.773l-3.268-0.373c-0.785-0.090-1.557 0.18-2.11 0.733l-2.367 2.367c-3.641-1.853-6.626-4.825-8.478-8.478l2.38-2.38c0.553-0.553 0.823-1.325 0.733-2.11l-0.373-3.242c-0.154-1.299-1.248-2.277-2.56-2.277h-2.226c-1.454 0-2.663 1.209-2.573 2.663 0.682 10.987 9.469 19.761 20.443 20.443 1.454 0.090 2.663-1.119 2.663-2.573v-2.226c0.013-1.299-0.965-2.393-2.264-2.547v0z"/></symbol><symbol id="person-black" viewBox="0 0 32 32"><path d="M16 16a5.3 5.3 0 1 0 0-10.7A5.3 5.3 0 1 0 16 16zm0 2.7c-3.6 0-10.7 1.7-10.7 5.3v1.4c0 .7.6 1.3 1.5 1.3h18.4c1 0 1.5-.6 1.5-1.5V24c0-3.6-7.1-5.3-10.7-5.3z"/></symbol><symbol id="icon-check" viewBox="0 0 34 32"><path fill="#2196f3" style="fill:var(--color1, #2196f3)" d="M4.3 0h25.6C32.2 0 34 2 34 4.3v23.4c0 2.4-1.9 4.3-4.2 4.3H4.3C1.9 32 0 30 0 27.7V4.3C0 1.9 2 0 4.3 0z"/><path fill="#fff" style="fill:var(--color2, #fff);stroke:var(--color2, #fff)" stroke="#fff" stroke-width=".4" d="m8.5 16.6-.2-.2-2.1 2v.2l7.5 7.2h.2L30 10.5v-.3l-2.2-1.9-14 13.5-5.4-5.2z"/></symbol>
<symbol id="icon-menu_40px" viewBox="0 0 32 32"><path d="M6.402 11.763v-2.161h19.206v2.161h-19.206zM6.402 17.045h19.206v-2.081h-19.206v2.081zM6.402 22.406h19.206v-2.161h-19.206v2.161z"></path></symbol>
<symbol id="icon-close_40px" viewBox="0 0 32 32"><path d="M23.767 10.323l-1.6-1.52-5.922 6.002-5.842-6.002-1.6 1.52 6.002 5.922-6.002 6.002 1.52 1.52 5.922-6.002 6.002 6.002 1.52-1.6-6.002-5.922 6.002-5.922z"></path></symbol></defs></svg>